<svg width="33" height="33" viewBox="0 0 33 33" fill="none" xmlns="http://www.w3.org/2000/svg">
<path d="M27.398 9.04615L23.6246 5.27282C22.8752 4.52246 21.8585 4.10042 20.798 4.09949H12.3446C11.2841 4.10042 10.2674 4.52246 9.51796 5.27282L5.74462 9.04615C4.99426 9.79558 4.57222 10.8123 4.57129 11.8728V24.0995C4.57129 25.1604 4.99272 26.1778 5.74286 26.9279C6.49301 27.6781 7.51042 28.0995 8.57129 28.0995H24.5713C25.6322 28.0995 26.6496 27.6781 27.3997 26.9279C28.1499 26.1778 28.5713 25.1604 28.5713 24.0995V11.8728C28.5704 10.8123 28.1483 9.79558 27.398 9.04615ZM16.5713 21.4328C15.1568 21.4328 13.8002 20.8709 12.8001 19.8707C11.7999 18.8705 11.238 17.514 11.238 16.0995C11.238 15.7459 11.3784 15.4067 11.6285 15.1567C11.8785 14.9066 12.2177 14.7662 12.5713 14.7662C12.9249 14.7662 13.264 14.9066 13.5141 15.1567C13.7641 15.4067 13.9046 15.7459 13.9046 16.0995C13.9046 16.8067 14.1856 17.485 14.6857 17.9851C15.1858 18.4852 15.864 18.7662 16.5713 18.7662C17.2785 18.7662 17.9568 18.4852 18.4569 17.9851C18.957 17.485 19.238 16.8067 19.238 16.0995C19.238 15.7459 19.3784 15.4067 19.6285 15.1567C19.8785 14.9066 20.2177 14.7662 20.5713 14.7662C20.9249 14.7662 21.264 14.9066 21.5141 15.1567C21.7641 15.4067 21.9046 15.7459 21.9046 16.0995C21.9046 17.514 21.3427 18.8705 20.3425 19.8707C19.3423 20.8709 17.9858 21.4328 16.5713 21.4328ZM9.11796 9.43282L11.398 7.15282C11.6535 6.90918 11.9916 6.77107 12.3446 6.76615H20.798C21.151 6.77107 21.4891 6.90918 21.7446 7.15282L24.0246 9.43282H9.11796Z" fill="#FC4C4C"/>
</svg>
