<svg width="23" height="27" viewBox="0 0 23 27" fill="none" xmlns="http://www.w3.org/2000/svg">
<path d="M21.6226 24.1906H20.4002V20.1618C20.4002 18.6288 19.6621 17.1619 18.3775 16.136L16.4086 14.5651C16.0174 14.2521 15.8023 13.8231 15.8023 13.3573C15.8023 12.8915 16.0174 12.4613 16.4086 12.1495L18.3775 10.5786C19.6621 9.55267 20.4002 8.08478 20.4002 6.55281V2.52403H21.6226C22.2984 2.52403 22.8447 2.03864 22.8447 1.44057C22.8447 0.842697 22.2984 0.3573 21.6226 0.3573H2.06687C1.39101 0.3573 0.844727 0.842697 0.844727 1.44057C0.844727 2.03864 1.39101 2.52403 2.06687 2.52403H3.28925V6.55281C3.28925 8.08577 4.02732 9.55267 5.31191 10.5786L7.28086 12.1495C7.67206 12.4625 7.88713 12.8915 7.88713 13.3573C7.88713 13.8231 7.67206 14.2533 7.28086 14.5651L5.31191 16.136C4.02732 17.1619 3.28925 18.6298 3.28925 20.1618V24.1906H2.06687C1.39101 24.1906 0.844727 24.676 0.844727 25.274C0.844727 25.8719 1.39101 26.3573 2.06687 26.3573H21.6226C22.2984 26.3573 22.8447 25.8719 22.8447 25.274C22.8447 24.676 22.2984 24.1906 21.6226 24.1906Z" fill="#FC4C4C"/>
</svg>
