<svg width="37" height="37" viewBox="0 0 37 37" fill="none" xmlns="http://www.w3.org/2000/svg">
<path d="M29.02 16.5995H20.02V7.59949C20.02 7.20166 19.862 6.82013 19.5807 6.53883C19.2994 6.25752 18.9178 6.09949 18.52 6.09949C18.1222 6.09949 17.7407 6.25752 17.4594 6.53883C17.1781 6.82013 17.02 7.20166 17.02 7.59949V16.5995H8.02002C7.62219 16.5995 7.24066 16.7575 6.95936 17.0388C6.67806 17.3201 6.52002 17.7017 6.52002 18.0995C6.52002 18.4973 6.67806 18.8788 6.95936 19.1601C7.24066 19.4415 7.62219 19.5995 8.02002 19.5995H17.02V28.5995C17.02 28.9973 17.1781 29.3788 17.4594 29.6601C17.7407 29.9415 18.1222 30.0995 18.52 30.0995C18.9178 30.0995 19.2994 29.9415 19.5807 29.6601C19.862 29.3788 20.02 28.9973 20.02 28.5995V19.5995H29.02C29.4178 19.5995 29.7994 19.4415 30.0807 19.1601C30.362 18.8788 30.52 18.4973 30.52 18.0995C30.52 17.7017 30.362 17.3201 30.0807 17.0388C29.7994 16.7575 29.4178 16.5995 29.02 16.5995Z" fill="#FC4C4C"/>
</svg>
